HIERARCHY
ROOT Hips
{
	OFFSET -3.958830 18.904000 13.208200
	CHANNELS 6 Xposition Yposition Zposition Zrotation Yrotation Xrotation 
	JOINT LHipJoint
	{
		OFFSET 0.000000 0.000000 0.000000
		CHANNELS 3 Zrotation Yrotation Xrotation
		JOINT LeftUpLeg
		{
			OFFSET 1.800000 -1.400000 0.085000
			CHANNELS 3 Zrotation Yrotation Xrotation
			JOINT LeftLeg
			{
				OFFSET 2.215000 -6.000000 0.000000
				CHANNELS 3 Zrotation Yrotation Xrotation
				JOINT LeftFoot
				{
					OFFSET 2.500000 -6.900000 0.000000
					CHANNELS 3 Zrotation Yrotation Xrotation
					JOINT LeftToeBase
					{
						OFFSET 0.200000 -0.500000 1.950000
						CHANNELS 3 Zrotation Yrotation Xrotation
						End Site
						{
							OFFSET 0.000000 0.000000 0.000000
						}
					}
				}
			}
		}
	}
	JOINT RHipJoint
	{
		OFFSET 0.000000 0.000000 0.000000
		CHANNELS 3 Zrotation Yrotation Xrotation
		JOINT RightUpLeg
		{
			OFFSET -1.800000 -1.400000 0.085000
			CHANNELS 3 Zrotation Yrotation Xrotation
			JOINT RightLeg
			{
				OFFSET -2.215000 -6.000000 0.000000
				CHANNELS 3 Zrotation Yrotation Xrotation
				JOINT RightFoot
				{
					OFFSET -2.500000 -6.900000 0.000000
					CHANNELS 3 Zrotation Yrotation Xrotation
					JOINT RightToeBase
					{
						OFFSET -0.200000 -0.500000 1.950000
						CHANNELS 3 Zrotation Yrotation Xrotation
						End Site
						{
							OFFSET 0.000000 0.000000 0.000000
						}
					}
				}
			}
		}
	}
	JOINT LowerBack
	{
		OFFSET 0.000000 0.000000 0.000000
		CHANNELS 3 Zrotation Yrotation Xrotation
		JOINT Spine
		{
			OFFSET -0.087000 1.940000 -0.288900
			CHANNELS 3 Zrotation Yrotation Xrotation
			JOINT Spine1
			{
				OFFSET 0.000000 1.950000 0.060000
				CHANNELS 3 Zrotation Yrotation Xrotation
				JOINT Neck
				{
					OFFSET 0.000000 0.000000 0.000000
					CHANNELS 3 Zrotation Yrotation Xrotation
					JOINT Neck1
					{
						OFFSET 0.000000 1.600000 0.340000
						CHANNELS 3 Zrotation Yrotation Xrotation
						JOINT Head
						{
							OFFSET 0.000000 1.667000 -0.240000
							CHANNELS 3 Zrotation Yrotation Xrotation
							End Site
							{
								OFFSET 0.000000 0.000000 0.000000
							}
						}
					}
				}
				JOINT LeftShoulder
				{
					OFFSET 0.000000 0.000000 0.000000
					CHANNELS 3 Zrotation Yrotation Xrotation
					JOINT LeftArm
					{
						OFFSET 2.700000 1.550000 -0.730000
						CHANNELS 3 Zrotation Yrotation Xrotation
						JOINT LeftForeArm
						{
							OFFSET 5.450000 0.000000 0.000000
							CHANNELS 3 Zrotation Yrotation Xrotation
							JOINT LeftHand
							{
								OFFSET 3.450000 0.000000 0.000000
								CHANNELS 3 Zrotation Yrotation Xrotation
								JOINT LeftHandIndex1
								{
									OFFSET 0.750000 0.000000 0.000000
									CHANNELS 3 Zrotation Yrotation Xrotation
									End Site
									{
										OFFSET 0.000000 0.000000 0.000000
									}
								}
							}
						}
					}
				}
				JOINT RightShoulder
				{
					OFFSET 0.000000 0.000000 0.000000
					CHANNELS 3 Zrotation Yrotation Xrotation
					JOINT RightArm
					{
						OFFSET -2.700000 1.550000 -0.730000
						CHANNELS 3 Zrotation Yrotation Xrotation
						JOINT RightForeArm
						{
							OFFSET -5.450000 0.000000 0.000000
							CHANNELS 3 Zrotation Yrotation Xrotation
							JOINT RightHand
							{
								OFFSET -3.450000 0.000000 0.000000
								CHANNELS 3 Zrotation Yrotation Xrotation
								JOINT RightHandIndex1
								{
									OFFSET -0.750000 0.000000 0.000000
									CHANNELS 3 Zrotation Yrotation Xrotation
									End Site
									{
										OFFSET 0.000000 0.000000 0.000000
									}
								}
							}
						}
					}
				}
			}
		}
	}
}
MOTION
Frames: 4
Frame Time: 0.016667
-0.274350 17.112300 -1.133470 16.180308 72.339783 12.309936 -15.672712 11.120531 4.954315 11.423865 -6.023293 -30.349081 -22.498297 30.151785 58.958966 1.965132 14.612396 -0.132733 0.725180 0.715280 0.391340 18.007660 -10.328114 1.909311 -13.312380 -0.242672 -1.479795 11.471197 -7.130750 12.071164 -0.438222 -5.118877 2.809504 0.570450 0.318120 0.163420 -3.856534 -0.640368 -8.146911 5.667035 4.019555 15.190368 -2.614642 6.052287 15.107148 1.469883 -5.636864 -8.979669 -9.988653 8.627654 28.155943 -4.582020 7.302210 -7.488510 -5.318124 -11.185579 2.956945 -3.046252 -17.235327 -5.578356 115.019725 -19.613936 -34.835500 -3.943302 3.226829 0.035390 0.371260 -0.140550 0.363050 2.455958 18.956566 4.619054 -4.621184 22.326438 -9.337283 -110.469305 19.966174 -35.074154 1.880296 -2.239897 -0.091280 0.235970 -0.278860 -0.081300 
-0.304000 17.109620 -1.131730 16.406137 72.532051 12.577757 -15.675646 11.150931 4.930477 11.036939 -6.204200 -30.139059 -21.979927 29.983907 59.501521 1.969180 14.651015 -0.136037 0.711870 0.694990 0.381370 18.001732 -10.314801 1.927053 -13.276417 -0.251110 -1.547372 11.623695 -7.116917 11.835040 -0.432256 -5.102204 2.821684 0.561240 0.327520 0.155530 -3.822453 -0.696542 -8.137258 5.370525 3.936577 15.112057 -2.445405 5.930149 14.907293 1.498124 -5.590291 -8.969355 -9.894870 8.716184 28.095509 -4.340020 7.310060 -7.484580 -5.438678 -10.730752 3.033859 -4.029754 -16.701918 -5.335028 116.650028 -19.986764 -36.612331 -3.942092 3.213654 0.043680 0.370710 -0.149600 0.360120 2.559412 18.475102 4.550044 -3.986070 22.143576 -9.164016 -111.162341 20.134370 -35.758922 1.868576 -2.230362 -0.103490 0.245890 -0.268060 -0.085580 
-0.333180 17.109890 -1.130810 16.662468 72.674861 12.875714 -15.676989 11.207675 4.890580 10.574862 -6.319626 -29.826843 -21.400458 29.584673 59.700399 1.953575 14.596574 -0.117933 0.697490 0.674730 0.372200 17.992784 -10.320311 1.941864 -13.214514 -0.240365 -1.722823 11.639084 -7.092854 11.776277 -0.423007 -5.069442 2.837882 0.548310 0.332190 0.147540 -3.787048 -0.759098 -8.114073 5.031059 3.851911 15.029341 -2.299880 5.800072 14.733862 1.529161 -5.564366 -8.991517 -9.856667 8.784758 28.107831 -4.131200 7.309460 -7.549380 -5.471660 -10.221912 3.150281 -5.226886 -16.095782 -5.055774 118.072656 -20.612381 -38.722665 -3.935835 3.198471 0.052770 0.366180 -0.154870 0.355170 2.572419 17.954573 4.490860 -3.104470 22.004945 -8.904686 -111.602276 20.676361 -36.828880 1.858645 -2.212134 -0.112080 0.252880 -0.258170 -0.088680 
-0.360610 17.111260 -1.130710 16.997794 72.847673 13.312884 -15.675082 11.269022 4.840320 10.055049 -6.412103 -29.536778 -20.746593 28.998097 59.673065 1.925134 14.477269 -0.083079 0.681730 0.653770 0.363880 17.986393 -10.335074 1.958821 -13.127267 -0.214986 -1.983834 11.616395 -7.053087 11.729781 -0.411421 -5.029954 2.852786 0.533240 0.336460 0.144680 -3.756899 -0.810438 -8.080770 4.691922 3.773443 14.861360 -2.180386 5.657342 14.570716 1.556944 -5.518719 -8.998171 -9.776321 8.785687 28.078718 -4.075550 7.322270 -7.517970 -5.464919 -9.617206 3.254924 -6.501449 -15.566363 -4.676708 119.185016 -21.575811 -41.125076 -3.934356 3.184417 0.055330 0.364680 -0.159650 0.348910 2.552577 17.312971 4.418781 -1.974277 21.928992 -8.504803 -111.896296 21.587632 -38.308362 1.848860 -2.192320 -0.115500 0.254170 -0.248420 -0.089900 
